<mxfile host="Electron" agent="Mozilla/5.0 (Windows NT 10.0; Win64; x64) AppleWebKit/537.36 (KHTML, like Gecko) draw.io/24.7.8 Chrome/128.0.6613.36 Electron/32.0.1 Safari/537.36" version="24.7.8">
  <diagram name="Page-1" id="SUeCrj84D4Svcq1LF6aA">
    <mxGraphModel dx="967" dy="1102" grid="1" gridSize="10" guides="1" tooltips="1" connect="1" arrows="1" fold="1" page="1" pageScale="1" pageWidth="850" pageHeight="1100" math="0" shadow="0">
      <root>
        <mxCell id="0" />
        <mxCell id="1" parent="0" />
        <mxCell id="TrpJmk-kWAxauUSbltNP-6" value="" style="edgeStyle=orthogonalEdgeStyle;rounded=0;orthogonalLoop=1;jettySize=auto;html=1;" edge="1" parent="1" source="TrpJmk-kWAxauUSbltNP-1" target="TrpJmk-kWAxauUSbltNP-2">
          <mxGeometry relative="1" as="geometry" />
        </mxCell>
        <mxCell id="TrpJmk-kWAxauUSbltNP-1" value="Start" style="rounded=1;whiteSpace=wrap;html=1;" vertex="1" parent="1">
          <mxGeometry x="40" y="40" width="120" height="60" as="geometry" />
        </mxCell>
        <mxCell id="TrpJmk-kWAxauUSbltNP-7" value="" style="edgeStyle=orthogonalEdgeStyle;rounded=0;orthogonalLoop=1;jettySize=auto;html=1;" edge="1" parent="1" source="TrpJmk-kWAxauUSbltNP-2" target="TrpJmk-kWAxauUSbltNP-3">
          <mxGeometry relative="1" as="geometry" />
        </mxCell>
        <mxCell id="TrpJmk-kWAxauUSbltNP-2" value="x: (int) = 10" style="rounded=0;whiteSpace=wrap;html=1;" vertex="1" parent="1">
          <mxGeometry x="40" y="170" width="120" height="60" as="geometry" />
        </mxCell>
        <mxCell id="TrpJmk-kWAxauUSbltNP-8" value="" style="edgeStyle=orthogonalEdgeStyle;rounded=0;orthogonalLoop=1;jettySize=auto;html=1;" edge="1" parent="1" source="TrpJmk-kWAxauUSbltNP-3" target="TrpJmk-kWAxauUSbltNP-4">
          <mxGeometry relative="1" as="geometry" />
        </mxCell>
        <mxCell id="TrpJmk-kWAxauUSbltNP-14" value="" style="edgeStyle=orthogonalEdgeStyle;rounded=0;orthogonalLoop=1;jettySize=auto;html=1;" edge="1" parent="1" source="TrpJmk-kWAxauUSbltNP-3" target="TrpJmk-kWAxauUSbltNP-13">
          <mxGeometry relative="1" as="geometry" />
        </mxCell>
        <mxCell id="TrpJmk-kWAxauUSbltNP-3" value="x &amp;lt;= 20" style="ellipse;whiteSpace=wrap;html=1;aspect=fixed;" vertex="1" parent="1">
          <mxGeometry x="60" y="310" width="80" height="80" as="geometry" />
        </mxCell>
        <mxCell id="TrpJmk-kWAxauUSbltNP-9" value="" style="edgeStyle=orthogonalEdgeStyle;rounded=0;orthogonalLoop=1;jettySize=auto;html=1;" edge="1" parent="1" source="TrpJmk-kWAxauUSbltNP-4" target="TrpJmk-kWAxauUSbltNP-5">
          <mxGeometry relative="1" as="geometry" />
        </mxCell>
        <mxCell id="TrpJmk-kWAxauUSbltNP-4" value="x" style="shape=document;whiteSpace=wrap;html=1;boundedLbl=1;size=0.625;" vertex="1" parent="1">
          <mxGeometry x="40" y="430" width="120" height="80" as="geometry" />
        </mxCell>
        <mxCell id="TrpJmk-kWAxauUSbltNP-5" value="x += 1" style="rounded=0;whiteSpace=wrap;html=1;" vertex="1" parent="1">
          <mxGeometry x="40" y="560" width="120" height="60" as="geometry" />
        </mxCell>
        <mxCell id="TrpJmk-kWAxauUSbltNP-11" value="" style="endArrow=none;html=1;rounded=0;" edge="1" parent="1">
          <mxGeometry width="50" height="50" relative="1" as="geometry">
            <mxPoint x="190" y="690" as="sourcePoint" />
            <mxPoint x="50" y="690" as="targetPoint" />
            <Array as="points">
              <mxPoint x="100" y="690" />
            </Array>
          </mxGeometry>
        </mxCell>
        <mxCell id="TrpJmk-kWAxauUSbltNP-12" value="" style="endArrow=none;html=1;rounded=0;" edge="1" parent="1">
          <mxGeometry width="50" height="50" relative="1" as="geometry">
            <mxPoint x="30" y="740" as="sourcePoint" />
            <mxPoint x="200" y="740" as="targetPoint" />
          </mxGeometry>
        </mxCell>
        <mxCell id="TrpJmk-kWAxauUSbltNP-16" value="" style="edgeStyle=orthogonalEdgeStyle;rounded=0;orthogonalLoop=1;jettySize=auto;html=1;" edge="1" parent="1" source="TrpJmk-kWAxauUSbltNP-13" target="TrpJmk-kWAxauUSbltNP-15">
          <mxGeometry relative="1" as="geometry" />
        </mxCell>
        <mxCell id="TrpJmk-kWAxauUSbltNP-13" value="finish" style="shape=document;whiteSpace=wrap;html=1;boundedLbl=1;size=0.5;" vertex="1" parent="1">
          <mxGeometry x="230" y="310" width="120" height="80" as="geometry" />
        </mxCell>
        <mxCell id="TrpJmk-kWAxauUSbltNP-15" value="End" style="rounded=1;whiteSpace=wrap;html=1;" vertex="1" parent="1">
          <mxGeometry x="230" y="490" width="120" height="60" as="geometry" />
        </mxCell>
      </root>
    </mxGraphModel>
  </diagram>
</mxfile>
